<svg width="294" height="186" viewBox="0 0 294 186" fill="none" xmlns="http://www.w3.org/2000/svg">
<g filter="url(#filter0_d_163_3523)">
<rect x="36" y="36" width="221.464" height="113.837" rx="16" fill="#4B1809"/>
<g clip-path="url(#clip0_163_3523)">
<path d="M102.354 115.943C98.5641 115.51 94.6316 113.821 92.2441 111.605C91.6704 111.072 91.6153 110.976 91.5254 110.356C91.4062 109.531 91.5357 104.452 91.6783 104.364C91.7347 104.33 92.161 104.674 92.6256 105.13C94.6377 107.106 97.8563 108.759 101.043 109.453C102.35 109.738 105.168 109.806 106.448 109.583C110.585 108.862 113.732 105.747 114.123 101.98C114.164 101.592 114.162 101.275 114.119 101.275C114.076 101.275 113.737 101.48 113.367 101.731C111.866 102.748 109.913 103.559 107.775 104.056C106.495 104.353 103.399 104.353 102.119 104.056C97.862 103.068 94.8 101.032 92.5321 97.6786C90.6994 94.9693 89.7539 91.3523 90.0568 88.2088C90.7451 81.0636 96.0421 75.5828 103.178 74.6242C106.372 74.1979 110.263 75.1024 113.063 76.9222C113.596 77.2692 114.063 77.5232 114.099 77.4868C114.136 77.4503 114.166 76.972 114.166 76.4236V75.4267H119.707L119.736 80.7031L119.766 85.9795L120.195 84.7535C120.985 82.4987 122.128 80.6146 123.632 79.0886C125.715 76.9786 128.012 75.6645 130.843 74.9637C136.332 73.6065 142.222 75.5433 145.823 79.8922C147.167 81.5135 148.112 83.2681 148.738 85.3019C148.945 85.9748 148.947 85.9257 148.976 77.4864L149.005 68.9941H154.546V75.4271H166.65V80.9549L154.602 81.0133L154.602 85.8656C154.603 91.2677 154.615 91.3756 155.402 92.9778C156.407 95.0244 158.311 96.5263 160.71 97.1649C161.86 97.4713 165.889 97.4723 167.046 97.1666C169.4 96.5445 171.305 95.026 172.308 92.9744C172.879 91.8068 173.058 90.9621 173.147 89.0285C173.187 88.1615 173.298 87.0708 173.394 86.6049C174.073 83.3294 175.824 80.2849 178.206 78.2396C181.201 75.6687 184.74 74.4143 188.596 74.5578C200.249 74.989 206.885 87.8377 200.526 97.6262C199.737 98.8403 197.602 100.991 196.417 101.761C193.665 103.554 190.668 104.399 187.521 104.272C184.727 104.16 182.306 103.413 180.054 101.971C178.877 101.217 177.506 100.027 176.712 99.0684C176.325 98.6012 175.973 98.2189 175.931 98.2189C175.889 98.2189 175.494 98.6435 175.053 99.1623C172.466 102.209 168.419 104.071 163.927 104.279C157.383 104.583 151.086 99.7971 149.47 93.2867C149.311 92.6477 149.149 92.1248 149.108 92.1248C149.067 92.1248 148.948 92.5184 148.843 92.9994C148.241 95.7608 146.328 98.837 144.017 100.757C141.959 102.467 139.796 103.491 136.946 104.107C135.868 104.34 132.624 104.304 131.516 104.047C127.291 103.067 124.113 100.937 121.903 97.6026C121.12 96.4204 120.727 95.6157 120.19 94.0998L119.751 92.8584L119.681 97.9367C119.609 103.137 119.591 103.357 119.078 105.281C118.05 109.14 114.836 112.906 111.06 114.679C110.08 115.139 108.541 115.621 107.424 115.818C106.475 115.986 103.406 116.055 102.34 115.933L102.354 115.943ZM108.034 97.3182C109.832 96.9005 111.538 95.8835 112.549 94.6241C112.827 94.2784 113.292 93.5137 113.582 92.9241L114.108 91.8534V86.8855L113.627 85.8801C112.515 83.5606 110.784 82.1628 108.225 81.5204C107.329 81.2951 106.922 81.2644 104.831 81.2633C102.753 81.2621 102.342 81.2923 101.55 81.5047C98.4157 82.3458 96.3184 84.5479 95.6706 87.68C94.8238 91.7706 97.1698 95.8384 101.101 97.094C101.68 97.2791 102.477 97.4795 102.87 97.5397C103.951 97.7045 106.917 97.5773 108.032 97.3183L108.034 97.3182ZM137.649 97.267C140.481 96.5538 142.528 94.6694 143.441 91.9385C143.699 91.1667 143.735 90.87 143.74 89.4806C143.745 88.2544 143.699 87.7362 143.533 87.1674C142.677 84.2194 140.657 82.2694 137.696 81.5317C135.691 81.0327 132.221 81.1072 130.382 81.689C127.841 82.4927 125.95 84.4923 125.231 87.1343C125.048 87.8077 124.992 88.3428 124.991 89.4233C124.99 91.0725 125.247 92.1149 125.98 93.4314C126.527 94.4124 127.878 95.7814 128.866 96.3553C129.761 96.8752 131.294 97.3986 132.335 97.5402C133.613 97.7141 136.452 97.5678 137.648 97.2663L137.649 97.267ZM191.355 97.2769C194.256 96.542 196.321 94.5714 197.221 91.6819C197.439 90.983 197.484 90.5896 197.482 89.4246C197.478 87.7804 197.305 86.9996 196.641 85.6437C195.63 83.5794 193.821 82.1575 191.379 81.5087C190.59 81.2995 190.16 81.2682 188.042 81.2666C185.907 81.265 185.499 81.2944 184.705 81.5068C183.171 81.917 182.008 82.5637 181.032 83.5483C180.032 84.5575 179.549 85.3295 179.068 86.6867C178.739 87.6151 178.718 87.7751 178.715 89.3122C178.711 91.1683 178.831 91.7155 179.558 93.1413C180.524 95.0355 182.184 96.432 184.261 97.096C185.736 97.5675 186.493 97.6584 188.494 97.6049C189.876 97.5678 190.482 97.4984 191.355 97.2772L191.355 97.2769Z" fill="white"/>
</g>
</g>
<defs>
<filter id="filter0_d_163_3523" x="0" y="0" width="293.464" height="185.837" filterUnits="userSpaceOnUse" color-interpolation-filters="sRGB">
<feFlood flood-opacity="0" result="BackgroundImageFix"/>
<feColorMatrix in="SourceAlpha" type="matrix" values="0 0 0 0 0 0 0 0 0 0 0 0 0 0 0 0 0 0 127 0" result="hardAlpha"/>
<feOffset/>
<feGaussianBlur stdDeviation="18"/>
<feComposite in2="hardAlpha" operator="out"/>
<feColorMatrix type="matrix" values="0 0 0 0 1 0 0 0 0 1 0 0 0 0 1 0 0 0 0.24 0"/>
<feBlend mode="normal" in2="BackgroundImageFix" result="effect1_dropShadow_163_3523"/>
<feBlend mode="normal" in="SourceGraphic" in2="effect1_dropShadow_163_3523" result="shape"/>
</filter>
<clipPath id="clip0_163_3523">
<rect width="113" height="47" fill="white" transform="translate(90 69)"/>
</clipPath>
</defs>
</svg>
