<svg width="295" height="186" viewBox="0 0 295 186" fill="none" xmlns="http://www.w3.org/2000/svg">
<g filter="url(#filter0_d_163_3542)">
<rect x="36.7319" y="36" width="221.464" height="113.837" rx="16" fill="#4B1809"/>
<g clip-path="url(#clip0_163_3542)">
<path d="M117.485 124.994C116.861 124.971 115.977 124.919 115.511 124.88C109.211 124.345 104.137 122.24 100.569 118.684C99.3646 117.482 98.4279 116.258 97.6039 114.806C96.2007 112.334 95.3496 109.601 95.0677 106.661C94.9664 105.605 94.9804 103.814 95.0991 102.639C95.6152 97.5315 97.8979 92.3618 101.77 87.5317C105.485 82.8977 110.593 78.7037 116.721 75.2571C118.589 74.2065 120.903 73.041 123.132 72.028C135.761 66.2883 152.067 62.434 168.411 61.3252C171.803 61.095 174.648 60.9998 178.12 61C182.006 61.0002 185.076 61.1214 188.579 61.4127C192.187 61.7126 194.879 62.0632 198.803 62.7439C198.904 62.7613 198.992 62.7914 199 62.8108C199.027 62.8834 197.666 65.5669 196.74 67.2637C189.513 80.5095 178.02 94.1911 165.227 104.776C156.212 112.235 147.017 117.796 138.331 121.041C132.117 123.363 126.363 124.643 120.741 124.954C120.187 124.985 117.963 125.012 117.485 124.994Z" fill="white"/>
<path d="M162.476 103.848C162.758 103.813 163.159 103.686 163.408 103.554C163.631 103.435 163.867 103.217 163.943 103.061L164.002 102.938V94.6429C164.002 87.4365 163.997 86.3346 163.96 86.2471C163.884 86.0653 163.649 85.8707 163.301 85.7016C162.558 85.3412 162.111 85.2959 161.458 85.5149C160.915 85.6969 160.553 85.9394 160.418 86.2115L160.343 86.361L160.343 94.6369L160.344 102.913L160.411 103.058C160.605 103.474 161.392 103.849 162.13 103.875C162.186 103.877 162.342 103.865 162.476 103.848ZM157.635 103.85C158.516 103.799 158.851 103.701 159.116 103.417C159.424 103.088 159.553 102.61 159.528 101.889C159.507 101.271 159.383 100.903 159.103 100.623C158.796 100.315 158.403 100.221 157.303 100.189C156.633 100.17 156.537 100.161 156.391 100.105C155.966 99.9408 155.728 99.5687 155.647 98.942C155.624 98.7696 155.628 97.3648 155.658 93.8787C155.681 91.2251 155.704 89.0502 155.709 89.0456C155.724 89.032 157.446 88.9727 157.823 88.9729C158.343 88.9732 158.584 88.8965 158.868 88.6413C159.053 88.4748 159.227 88.1343 159.29 87.8139C159.349 87.5194 159.349 86.878 159.29 86.5861C159.228 86.279 159.08 85.9771 158.908 85.8044C158.55 85.4466 158.129 85.3705 156.504 85.3697L155.589 85.3693L155.588 85.117C155.587 84.9783 155.575 84.3912 155.561 83.8124C155.532 82.6209 155.531 82.616 155.304 82.3131C155.073 82.006 154.712 81.7721 154.293 81.6593C154.16 81.6235 154.001 81.6093 153.745 81.6101C153.329 81.6119 153.124 81.6563 152.794 81.8172C152.518 81.9525 152.156 82.3032 152.03 82.5583L151.944 82.7313L151.936 90.8616C151.927 99.2911 151.931 99.5901 152.045 100.251C152.323 101.852 153.097 102.92 154.384 103.479C154.946 103.723 155.349 103.796 156.396 103.847C157.086 103.88 157.114 103.88 157.635 103.85ZM144.893 100.16C144.351 100.061 143.836 99.7317 143.591 99.3274C143.305 98.854 143.247 98.1873 143.447 97.6549C143.608 97.2287 143.963 96.8315 144.369 96.6252L144.592 96.5123L145.826 96.5045L147.061 96.4968V97.6623C147.061 99.009 147.055 99.0424 146.803 99.403C146.56 99.748 146.184 100.004 145.75 100.117C145.54 100.172 145.08 100.195 144.893 100.16ZM145.577 103.849C146.541 103.758 147.723 103.306 148.475 102.741C149.551 101.933 150.406 100.672 150.632 99.5597C150.692 99.2674 150.692 99.2309 150.683 94.5012L150.675 89.7371L150.609 89.4488C150.107 87.2395 148.617 85.8321 146.397 85.4715C145.929 85.3953 145.242 85.3626 144.805 85.3956C143.436 85.4989 142.32 86.0138 141.273 87.0257C140.458 87.8136 139.959 88.6876 139.742 89.7083C139.666 90.0657 139.631 90.9197 139.682 91.1661C139.767 91.5758 140.014 91.893 140.385 92.0695C140.712 92.225 140.979 92.2731 141.5 92.2695C142.177 92.2652 142.546 92.1491 142.885 91.8346C143.17 91.5713 143.215 91.4531 143.329 90.6817C143.353 90.5194 143.398 90.3195 143.429 90.2375C143.605 89.7737 144.081 89.3419 144.614 89.1611C144.82 89.0913 144.904 89.0789 145.173 89.0774C145.541 89.0757 145.725 89.1137 146.018 89.2523C146.518 89.4887 146.844 90.0191 146.991 90.8327C147.032 91.0591 147.042 91.2602 147.04 91.7697C147.038 92.1265 147.026 92.4897 147.012 92.577L146.988 92.7355L146.7 92.7211C146.1 92.6911 145.123 92.7114 144.77 92.7615C143.558 92.9329 142.613 93.3026 141.773 93.9337C140.584 94.8274 139.904 95.9887 139.696 97.4782C139.625 97.9914 139.653 98.9879 139.753 99.4551C140.014 100.681 140.681 101.762 141.709 102.627C142.615 103.39 143.557 103.758 144.856 103.86C145.111 103.88 145.274 103.877 145.577 103.849ZM132.971 100.277C132.262 100.176 131.739 99.7855 131.503 99.1796L131.43 98.9917V94.6672V90.3426L131.508 90.1758C131.616 89.9443 131.761 89.778 132.028 89.5767C132.479 89.236 133.024 89.0336 133.381 89.073C133.957 89.1364 134.81 89.7132 135.031 90.1884L135.103 90.3426L135.103 94.6547C135.104 99.3763 135.114 99.0757 134.938 99.4242C134.834 99.6287 134.495 99.9582 134.272 100.071C133.926 100.245 133.369 100.334 132.971 100.277ZM134.009 103.818C134.743 103.74 135.466 103.531 136.097 103.216C137.461 102.534 138.366 101.37 138.709 99.8566L138.775 99.5683L138.784 94.8132C138.794 89.5744 138.803 89.869 138.616 89.3082C138.379 88.5954 137.792 87.7167 137.063 86.9825C136.22 86.1344 135.381 85.6648 134.387 85.4864C133.406 85.3102 132.544 85.3619 131.729 85.6457C131.574 85.6998 131.44 85.7441 131.431 85.7441C131.422 85.7441 131.415 85.11 131.415 84.335C131.415 82.799 131.416 82.8114 131.247 82.5648C131.032 82.2519 130.672 81.9906 130.278 81.8606C130.071 81.7924 130.001 81.7842 129.615 81.7824C129.123 81.7798 128.95 81.8153 128.592 81.9901C128.311 82.1271 127.948 82.4786 127.826 82.7312L127.742 82.9042L127.733 90.9335C127.728 96.3766 127.735 99.0728 127.755 99.3041C127.977 101.806 130.001 103.667 132.712 103.86C132.939 103.877 133.688 103.852 134.009 103.818ZM120.865 100.159C120.059 100.023 119.48 99.5009 119.325 98.7716C119.258 98.4565 119.282 97.9889 119.38 97.7135C119.564 97.1899 119.979 96.7478 120.466 96.5559C120.605 96.5011 120.679 96.4979 121.809 96.4979H123.004L122.996 97.7304L122.989 98.9629L122.885 99.1791C122.643 99.6849 122.153 100.039 121.546 100.144C121.278 100.191 121.082 100.195 120.865 100.159ZM121.886 103.805C122.665 103.681 123.718 103.25 124.357 102.792C124.677 102.563 125.174 102.091 125.475 101.731C125.928 101.189 126.303 100.526 126.487 99.9453C126.67 99.3696 126.664 99.5562 126.654 94.4567L126.645 89.8236L126.568 89.4767C126.176 87.7137 125.141 86.43 123.622 85.8225C122.998 85.5732 122.413 85.4494 121.606 85.3965C120.027 85.2928 118.706 85.734 117.507 86.766C116.428 87.6939 115.807 88.7902 115.641 90.0589C115.507 91.0812 115.675 91.6618 116.205 92.0018C116.72 92.3324 117.837 92.3746 118.464 92.0871C118.709 91.9749 118.864 91.8523 119.008 91.6566C119.116 91.5096 119.141 91.4467 119.194 91.1886C119.228 91.0245 119.269 90.7815 119.287 90.6484C119.344 90.2092 119.509 89.8948 119.844 89.5882C120.301 89.1687 120.903 88.9908 121.5 89.0988C122.356 89.254 122.838 89.9011 122.975 91.0798C123.01 91.3765 122.996 92.4427 122.955 92.6587L122.937 92.7548L122.66 92.7307C122.189 92.6899 121.127 92.7065 120.726 92.7607C118.583 93.0513 116.913 94.1851 116.101 95.9006C115.517 97.1348 115.433 98.8178 115.891 100.128C116.351 101.447 117.457 102.695 118.724 103.326C119.661 103.792 120.838 103.971 121.886 103.805ZM106.147 103.79C106.624 103.678 107.043 103.396 107.216 103.071L107.285 102.942L107.299 96.6421L107.314 90.3426L107.378 90.1866C107.527 89.8208 107.828 89.4835 108.158 89.3096C108.482 89.1393 108.754 89.0771 109.172 89.0777C109.588 89.0783 109.792 89.1226 110.123 89.2843C110.537 89.4865 110.894 89.941 110.985 90.3801C111.007 90.4876 111.016 92.3549 111.016 96.6879V102.843L111.078 102.963C111.212 103.227 111.592 103.546 111.958 103.7C112.583 103.964 113.448 103.905 114.033 103.558C114.242 103.433 114.534 103.149 114.614 102.992L114.676 102.87L114.668 96.3758L114.661 89.8813L114.57 89.5618C114.253 88.4516 113.765 87.5946 113.034 86.8685C112.242 86.0816 111.277 85.6152 110.08 85.4401C109.664 85.3793 108.773 85.371 108.366 85.4242C106.722 85.639 105.449 86.4096 104.577 87.719C104.15 88.3607 103.847 89.0799 103.7 89.8028C103.641 90.0892 103.641 90.1573 103.641 96.4736C103.642 102.809 103.642 102.856 103.7 102.983C104.014 103.676 105.103 104.035 106.147 103.79Z" fill="#4B1809"/>
</g>
</g>
<defs>
<filter id="filter0_d_163_3542" x="0.731934" y="0" width="293.464" height="185.837" filterUnits="userSpaceOnUse" color-interpolation-filters="sRGB">
<feFlood flood-opacity="0" result="BackgroundImageFix"/>
<feColorMatrix in="SourceAlpha" type="matrix" values="0 0 0 0 0 0 0 0 0 0 0 0 0 0 0 0 0 0 127 0" result="hardAlpha"/>
<feOffset/>
<feGaussianBlur stdDeviation="18"/>
<feComposite in2="hardAlpha" operator="out"/>
<feColorMatrix type="matrix" values="0 0 0 0 1 0 0 0 0 1 0 0 0 0 1 0 0 0 0.24 0"/>
<feBlend mode="normal" in2="BackgroundImageFix" result="effect1_dropShadow_163_3542"/>
<feBlend mode="normal" in="SourceGraphic" in2="effect1_dropShadow_163_3542" result="shape"/>
</filter>
<clipPath id="clip0_163_3542">
<rect width="104" height="64" fill="white" transform="translate(95 61)"/>
</clipPath>
</defs>
</svg>
