<svg width="294" height="186" viewBox="0 0 294 186" fill="none" xmlns="http://www.w3.org/2000/svg">
<g filter="url(#filter0_d_163_3529)">
<rect x="36.2681" y="36" width="221.464" height="113.837" rx="16" fill="#4B1809"/>
<path d="M137.639 58.5507C137.859 58.6944 138.075 58.8468 138.3 58.9819C138.854 59.3132 139.295 59.7483 139.629 60.3062C139.789 60.5741 139.841 60.839 139.763 61.1304C139.695 61.3874 139.605 61.639 139.525 61.8937C139.485 62.0194 139.445 62.1452 139.399 62.289C139.547 62.3108 139.677 62.3312 139.806 62.3491C140.185 62.4007 140.508 62.546 140.716 62.8866C141.305 63.8515 141.921 64.7999 142.478 65.7827C143.863 68.2241 144.906 70.8093 145.666 73.5108C146.138 75.1937 146.581 76.8835 146.889 78.6054C146.959 78.9976 146.929 79.4069 147.003 79.7976C147.077 80.189 147.001 80.5312 146.777 80.8319C146.319 81.4444 145.867 82.0655 145.359 82.6351C144.605 83.4819 143.763 84.246 142.819 84.8749C142.303 85.2187 141.727 85.4796 141.158 85.7327C140.94 85.8296 140.666 85.7999 140.373 85.8327C140.417 85.5952 140.462 85.4077 140.486 85.2171C140.533 84.8491 140.589 84.4804 140.603 84.1108C140.623 83.5843 140.612 83.0569 140.606 82.5296C140.605 82.3983 140.589 82.2616 140.55 82.1366C140.493 81.9554 140.391 81.8233 140.162 81.8171C139.927 81.8108 139.804 81.9249 139.742 82.1202C139.696 82.2647 139.663 82.4202 139.661 82.5718C139.653 83.2046 139.663 83.8374 139.659 84.4694C139.655 85.3897 139.441 86.2593 139.041 87.0905C138.776 87.6405 138.345 88.0429 137.903 88.4304C137.223 89.0265 136.434 89.464 135.637 89.8812C135.298 90.0585 134.941 90.1819 134.509 90.0874C134.532 89.9054 134.545 89.7257 134.578 89.5491C134.665 89.0812 134.833 88.614 134.832 88.1468C134.832 87.5866 134.7 87.0249 134.602 86.4679C134.577 86.3319 134.473 86.2046 134.387 86.0858C134.273 85.9296 134.03 85.8647 133.859 85.9358C133.684 86.0077 133.673 86.1647 133.673 86.3249C133.673 87.5554 133.672 88.7851 133.673 90.0155C133.674 90.5022 133.564 90.9624 133.347 91.396C133.146 91.7968 132.852 92.103 132.439 92.2991C131.338 92.8194 130.285 93.4241 129.302 94.1444C128.259 94.9093 127.742 95.9608 127.674 97.2397C127.665 97.4093 127.593 97.4663 127.457 97.4155C127.27 97.3468 127.06 97.2819 126.92 97.1515C126.466 96.7312 126.023 96.2976 125.609 95.8405C124.807 94.9593 124.712 93.9601 125.177 92.8851C125.518 92.096 125.934 91.3538 126.454 90.664C126.813 90.1882 127.113 89.6687 127.437 89.1679C127.474 89.1101 127.503 89.0468 127.538 88.9827C127.277 88.7007 126.979 88.5538 126.613 88.7179C126.391 88.8171 126.162 88.9319 125.989 89.096C125.219 89.8249 124.577 90.6562 124.093 91.6054C123.906 91.9718 123.695 92.3249 123.48 92.7085C122.593 91.8194 121.814 90.9429 121.716 89.6718C121.685 89.2679 121.806 88.8937 121.939 88.5233C122.146 87.9444 122.427 87.4046 122.8 86.9132C123.382 86.1468 123.95 85.3694 124.542 84.6116C124.718 84.3858 124.809 84.1608 124.785 83.8796C124.773 83.7413 124.783 83.6015 124.783 83.4476C124.388 83.4491 124.053 83.546 123.757 83.7671C123.123 84.2413 122.632 84.8429 122.207 85.5022C122.037 85.7663 121.878 86.039 121.671 86.3765C121.52 86.0913 121.317 85.8663 121.288 85.621C121.203 84.9054 121.148 84.1804 121.159 83.4608C121.168 82.8312 121.358 82.214 121.734 81.703C122.198 81.0702 122.716 80.4749 123.23 79.8812C123.644 79.4046 124.089 78.9546 124.518 78.4913C124.789 78.1976 124.912 77.8515 124.885 77.4491C124.878 77.339 124.845 77.296 124.733 77.2687C124.413 77.1905 124.139 77.2312 123.864 77.4397C123.243 77.9093 122.755 78.4913 122.327 79.1319C122.092 79.4827 122.077 79.4819 121.884 79.1069C121.638 78.6304 121.492 78.1319 121.52 77.589C121.53 77.4069 121.528 77.2233 121.52 77.0405C121.495 76.3788 121.768 75.8491 122.211 75.378C122.909 74.6358 123.734 74.0468 124.546 73.4444C124.868 73.2054 125.259 73.0554 125.629 72.8858C125.798 72.8085 125.817 72.6905 125.825 72.5343C125.834 72.3726 125.709 72.3577 125.614 72.3132C125.38 72.2022 125.119 72.1312 124.909 71.9866C124.605 71.778 124.326 71.5304 124.061 71.2741C123.979 71.1944 123.948 71.0335 123.942 70.9069C123.919 70.3874 124.081 69.6749 124.336 69.1155C124.441 69.396 124.536 69.6522 124.634 69.9062C124.784 70.2921 124.789 70.2593 125.195 70.3085C125.78 70.3804 126.227 70.2022 126.584 69.7312C126.936 69.2663 127.411 68.9968 127.991 68.878C128.538 68.7655 128.627 68.6124 128.498 68.0546C128.385 67.5663 128.35 67.0858 128.466 66.5968C128.475 66.5562 128.476 66.5132 128.476 66.471C128.473 66.1312 128.43 66.0897 128.093 66.0905C127.854 66.0913 127.614 66.0819 127.376 66.096C126.719 66.1358 126.109 65.9796 125.528 65.6827C125.244 65.5374 124.954 65.4257 124.623 65.4569C124.288 65.489 124.024 65.6187 123.898 65.9437C123.784 66.2374 123.688 66.5382 123.585 66.8366C123.553 66.9288 123.526 67.0226 123.488 67.1405C123.27 66.864 123.156 66.5624 123.091 66.2483C122.995 65.7929 122.857 65.3585 122.643 64.9413C122.386 64.4405 122.321 63.9116 122.542 63.3733C122.645 63.1233 122.652 62.8866 122.486 62.6585C122.45 62.6085 122.433 62.5444 122.413 62.4843C122.298 62.1437 122.352 61.9804 122.645 61.7851C122.958 61.5772 123.298 61.4608 123.678 61.4874C124.029 61.5116 124.358 61.4593 124.67 61.2757C125.345 60.878 126.089 60.7296 126.866 60.6944C127.074 60.6851 127.28 60.5952 127.523 60.5335C127.566 60.5929 127.64 60.6913 127.709 60.7944C128.02 61.2624 128.788 61.5202 129.363 61.2444C129.432 61.2116 129.511 61.1772 129.555 61.1202C129.859 60.7202 130.079 60.1374 129.788 59.5882C129.684 59.3921 129.518 59.289 129.323 59.2187C129.105 59.1413 128.886 59.071 128.667 58.9976C128.665 58.9749 128.663 58.9522 128.66 58.9304C128.885 58.8882 129.111 58.8069 129.334 58.8124C129.774 58.8241 130.214 58.8772 130.652 58.9272C131.349 59.0062 132.047 59.0874 132.742 59.1827C133.448 59.2788 134.134 59.4577 134.786 59.7468C135.176 59.9194 135.523 59.8882 135.878 59.6507C136.443 59.2718 137.022 58.9147 137.595 58.5483C137.609 58.5483 137.623 58.5483 137.637 58.5483L137.639 58.5507ZM138.457 61.6835C138.6 61.4038 138.676 60.8554 138.614 60.5835C138.605 60.5421 138.569 60.5007 138.534 60.4718C138.287 60.2647 138.036 60.0624 137.787 59.8569C137.587 59.6921 137.424 59.6983 137.224 59.864C137.073 59.9882 136.92 60.114 136.751 60.2093C136.616 60.2851 136.58 60.3733 136.61 60.5171C136.685 60.5319 136.752 60.5522 136.821 60.5585C137.217 60.5944 137.537 60.7663 137.804 61.064C137.999 61.2819 138.228 61.4694 138.456 61.6835H138.457Z" fill="white"/>
<path d="M177.081 95.2524C176.93 95.236 176.778 95.1977 176.629 95.2063C176.308 95.2243 175.988 95.2829 175.666 95.2946C175.204 95.311 174.74 95.2993 174.276 95.2993C174.255 95.2993 174.232 95.3 174.214 95.2914C173.514 94.9547 172.84 94.5696 172.605 93.7664C172.465 93.2852 172.496 92.7969 172.855 92.3766C173.062 92.1344 173.231 91.8625 173.118 91.511C173.057 91.3211 172.962 91.1711 172.765 91.0961C171.747 90.7086 170.768 90.6946 169.901 91.4493C169.707 91.618 169.544 91.8563 169.447 92.0954C168.907 93.4204 169.028 94.7055 169.757 95.9297C170.505 97.186 171.432 98.3047 172.43 99.3664C172.839 99.8008 173.275 100.211 173.655 100.668C174.586 101.785 175.509 102.912 176.24 104.173C176.713 104.988 176.961 105.892 177.13 106.814C177.219 107.308 177.029 107.767 176.909 108.237C176.694 109.081 176.237 109.763 175.561 110.295C175.355 110.456 175.108 110.582 174.862 110.671C174.193 110.912 173.495 110.974 172.787 110.955C172.394 110.944 172.001 110.952 171.608 110.97C171.249 110.988 171.014 111.248 171.014 111.601C171.014 112.206 171.028 112.81 171.016 113.414C171.002 114.102 170.756 114.718 170.347 115.264C170.024 115.695 169.568 115.888 169.042 115.949C168.124 116.056 167.259 115.904 166.424 115.5C165.16 114.888 163.822 114.482 162.443 114.234C161.726 114.106 160.995 114.062 160.272 113.967C159.786 113.903 159.301 113.816 158.816 113.742C158.74 113.731 158.662 113.728 158.585 113.723C158.053 113.695 157.522 113.645 156.99 113.644C156.521 113.642 156.051 113.673 155.584 113.727C154.854 113.809 154.222 113.64 153.702 113.103C153.634 113.033 153.55 112.978 153.469 112.922C153.18 112.72 152.847 112.735 152.581 112.966C152.275 113.229 151.972 113.495 151.683 113.747C151.309 113.511 151.148 113.19 151.017 112.855C150.946 112.673 150.839 112.609 150.667 112.695C150.475 112.79 150.285 112.891 150.106 113.009C149.984 113.09 149.887 113.207 149.771 113.297C149.545 113.47 149.308 113.427 149.169 113.177C149.089 113.031 149.05 112.861 148.97 112.714C148.936 112.65 148.851 112.587 148.78 112.574C148.43 112.512 148.144 112.588 148.032 112.977C148.022 113.009 147.996 113.037 147.977 113.066C147.675 113.548 147.313 113.663 146.796 113.431C146.749 113.409 146.703 113.312 146.709 113.256C146.789 112.587 147.041 112.001 147.546 111.535C147.905 111.203 148.321 110.981 148.792 110.861C149.166 110.766 149.465 110.565 149.714 110.27C149.94 110.002 150.181 109.745 150.43 109.496C150.832 109.093 151.326 108.85 151.892 108.835C152.198 108.827 152.524 108.896 152.812 109.005C153.31 109.192 153.795 109.42 154.268 109.663C154.997 110.04 155.747 110.333 156.583 110.22C157.132 110.145 157.672 110.013 158.219 109.917C159.059 109.77 159.913 109.666 160.756 109.779C161.46 109.873 162.144 110.112 162.837 110.288C163.204 110.381 163.569 110.478 163.936 110.573C164.244 110.652 164.469 110.532 164.65 110.259C164.603 110.216 164.558 110.166 164.504 110.127C163.612 109.475 162.651 109.066 161.522 108.926C160.24 108.767 158.969 108.848 157.694 108.809C156.957 108.786 156.253 108.611 155.589 108.338C154.458 107.873 153.372 107.306 152.385 106.574C152.043 106.321 151.726 106.027 151.432 105.72C151.12 105.393 150.963 104.973 150.873 104.534C150.851 104.427 150.853 104.309 150.876 104.202C150.944 103.895 151.02 103.587 151.109 103.284C151.354 102.453 151.826 101.752 152.382 101.101C152.551 100.903 152.722 100.709 152.896 100.515C154.462 98.7696 156.354 97.561 158.654 97.0211C158.945 96.9524 159.234 96.8532 159.507 96.7289C159.847 96.5743 159.906 96.418 159.837 95.9743C159.383 96.0125 158.919 96.018 158.468 96.0977C157.494 96.2688 156.529 96.4821 155.601 96.843C154.741 97.1774 153.996 97.6938 153.315 98.2907C152.483 99.0211 151.684 99.7946 150.902 100.581C150.207 101.279 149.405 101.799 148.441 101.952C147.684 102.073 146.901 102.038 146.133 101.9C145.674 101.818 145.225 101.878 144.788 102.047C144.599 102.12 144.463 102.238 144.383 102.421C144.272 102.678 144.16 102.936 144.057 103.197C143.978 103.398 143.831 103.498 143.624 103.507C143.408 103.516 143.24 103.418 143.144 103.226C143.069 103.076 143.03 102.909 142.955 102.759C142.851 102.554 142.753 102.339 142.608 102.166C142.283 101.779 141.869 101.654 141.377 101.831C141.16 101.909 140.932 101.959 140.715 102.039C140.65 102.063 140.587 102.139 140.557 102.206C140.426 102.502 140.315 102.805 140.185 103.099C140.083 103.33 139.932 103.51 139.643 103.483C139.329 103.454 139.07 103.327 138.942 103.024C138.88 102.878 138.853 102.715 138.822 102.557C138.717 102.016 138.447 101.777 137.901 101.759C137.662 101.752 137.422 101.758 137.184 101.755C136.86 101.75 136.665 101.934 136.532 102.204C136.483 102.304 136.432 102.411 136.419 102.52C136.343 103.153 135.952 103.579 135.503 103.982C134.96 104.47 134.403 104.949 133.919 105.492C133.474 105.993 133.097 106.559 132.729 107.123C132.222 107.898 131.736 108.688 131.274 109.491C130.818 110.282 130.413 111.106 130.253 112.015C130.058 113.117 129.297 113.877 128.088 114.009C126.888 114.141 125.685 114.25 124.483 114.353C123.676 114.422 122.884 114.56 122.097 114.746C121.513 114.884 120.918 114.956 120.333 114.716C120.228 113.94 120.312 113.217 120.858 112.588C121.123 112.284 121.323 111.922 121.551 111.585C121.803 111.213 122.034 110.825 122.31 110.472C122.437 110.31 122.639 110.195 122.827 110.099C123 110.012 123.198 109.973 123.389 109.925C124.323 109.689 125.003 109.112 125.406 108.266C126.155 106.696 126.851 105.1 127.559 103.511C127.79 102.992 128.02 102.47 128.201 101.933C128.465 101.149 128.556 100.338 128.542 99.5055C128.527 98.6547 128.626 97.8055 128.952 97.0071C129.48 95.7188 130.395 94.8086 131.668 94.2399C132.184 94.0086 132.685 93.736 133.176 93.4532C133.483 93.275 133.702 92.993 133.868 92.6743C133.939 92.5368 134.018 92.4039 134.092 92.2688C134.307 91.875 134.612 91.6079 135.056 91.4797C135.9 91.2352 136.732 90.9422 137.487 90.486C138.494 89.8774 139.407 89.1555 139.978 88.0914C140.337 87.4211 140.864 86.9907 141.605 86.7946C142.561 86.5414 143.364 85.9899 144.129 85.3914C145.224 84.5352 146.164 83.5164 147.068 82.4657C147.296 82.2008 147.483 81.9 147.668 81.6016C147.753 81.4633 147.844 81.4196 147.974 81.4922C148.353 81.7032 148.752 81.8891 149.098 82.1454C150.305 83.0399 151.577 83.8516 152.675 84.8891C153.476 85.6461 154.274 86.4071 155.081 87.1594C156.058 88.0704 156.959 89.0516 157.837 90.0579C158.69 91.0336 159.662 91.8914 160.694 92.6704C161.178 93.036 161.737 93.3032 162.27 93.6008C163.449 94.2586 164.608 94.9352 165.567 95.9157C166.57 96.9407 167.58 97.9547 168.433 99.1157C169.513 100.587 170.18 102.235 170.527 104.013C170.715 104.971 170.892 105.933 171.242 106.845C171.676 107.977 172.531 108.672 173.697 108.945C174.385 109.106 175.399 108.491 175.52 107.742C175.654 106.917 175.64 106.095 175.462 105.273C175.308 104.565 174.983 103.944 174.581 103.354C174.533 103.284 174.49 103.206 174.425 103.156C174.056 102.866 173.852 102.459 173.608 102.074C172.76 100.741 171.712 99.5664 170.636 98.4172C169.497 97.2016 168.754 95.7891 168.484 94.136C168.329 93.1836 168.679 92.3868 169.23 91.6485C169.251 91.6204 169.276 91.5954 169.298 91.568C170.058 90.6352 171.036 90.3539 172.18 90.6321C172.614 90.7375 173.034 90.9024 173.457 91.0532C173.954 91.2297 174.247 91.6094 174.465 92.0719C174.661 92.4836 174.862 92.8961 175.098 93.2836C175.533 93.993 176.082 94.5993 176.815 95.018C176.912 95.0735 177 95.143 177.092 95.2055C177.088 95.2219 177.083 95.2383 177.08 95.2539L177.081 95.2524ZM122.831 112.435C122.539 112.458 122.322 112.464 122.109 112.498C122.021 112.512 121.919 112.566 121.863 112.634C121.52 113.054 121.531 113.427 121.883 113.841C122.077 114.07 122.324 114.12 122.542 113.918C122.687 113.784 122.834 113.587 122.86 113.401C122.903 113.098 122.847 112.781 122.832 112.435H122.831ZM125.495 113.602C125.702 113.617 125.889 113.631 126.076 113.645C126.505 113.676 126.679 113.602 126.86 113.061C127.008 112.619 126.951 112.53 126.501 112.395C126.033 112.256 125.546 112.519 125.499 112.952C125.476 113.159 125.495 113.37 125.495 113.602ZM124.788 112.966C124.793 112.743 124.396 112.345 124.163 112.343C124.137 112.343 124.11 112.359 124.086 112.373C123.798 112.545 123.572 112.764 123.524 113.116C123.487 113.388 123.565 113.645 123.795 113.776C123.927 113.851 124.174 113.853 124.305 113.777C124.596 113.607 124.785 113.331 124.788 112.967V112.966Z" fill="white"/>
<path d="M146.281 122.645H148.119C148.119 122.402 148.119 122.166 148.119 121.929C148.119 121.802 148.108 121.674 148.123 121.55C148.191 121.017 148.037 120.567 147.643 120.199C147.594 120.153 147.56 120.089 147.479 119.978C148.473 119.999 149.418 119.896 150.357 120.045C150.373 120.079 150.39 120.112 150.405 120.145C150.255 120.277 150.104 120.407 149.953 120.538C149.823 120.652 149.773 120.793 149.773 120.968C149.777 122.43 149.772 123.892 149.783 125.354C149.783 125.479 149.869 125.613 149.942 125.727C150.008 125.83 150.109 125.909 150.226 126.032H147.475C147.656 125.827 147.817 125.672 147.943 125.492C148.026 125.374 148.099 125.221 148.104 125.081C148.122 124.521 148.112 123.96 148.112 123.384H146.267C146.267 123.539 146.267 123.691 146.267 123.843C146.266 124.251 146.28 124.659 146.256 125.066C146.24 125.354 146.339 125.57 146.544 125.754C146.632 125.833 146.716 125.916 146.839 126.031H144.103C144.337 125.838 144.519 125.677 144.712 125.531C144.816 125.451 144.861 125.367 144.86 125.231C144.855 123.784 144.852 122.335 144.865 120.888C144.867 120.616 144.806 120.427 144.538 120.333C144.466 120.308 144.397 120.266 144.34 120.216C144.306 120.187 144.276 120.12 144.287 120.082C144.298 120.041 144.358 119.986 144.398 119.986C145.174 119.981 145.951 119.982 146.79 119.982C146.63 120.191 146.509 120.345 146.394 120.502C146.35 120.563 146.286 120.632 146.284 120.699C146.276 121.343 146.28 121.988 146.28 122.647L146.281 122.645Z" fill="white"/>
<path d="M157.853 126.162C158.043 125.97 158.197 125.809 158.358 125.656C158.538 125.485 158.606 125.28 158.606 125.033C158.601 123.599 158.606 122.165 158.597 120.731C158.597 120.638 158.528 120.528 158.459 120.456C158.291 120.28 158.105 120.121 157.883 119.916C158.005 119.901 158.063 119.888 158.123 119.888C158.664 119.882 159.205 119.88 159.746 119.876C160.035 119.874 160.23 120.004 160.367 120.263C160.952 121.375 161.549 122.481 162.136 123.591C162.249 123.803 162.411 123.676 162.567 123.695C162.572 123.625 162.581 123.571 162.581 123.517C162.582 122.694 162.569 121.871 162.591 121.049C162.6 120.713 162.476 120.486 162.21 120.311C162.128 120.258 162.052 120.197 161.957 120.128C162.117 119.979 162.271 119.871 162.493 119.874C162.955 119.881 163.417 119.877 163.879 119.877C163.892 119.908 163.906 119.939 163.92 119.97C163.774 120.143 163.646 120.336 163.478 120.484C163.303 120.639 163.242 120.808 163.242 121.036C163.249 122.659 163.248 124.283 163.249 125.907C163.249 125.99 163.249 126.073 163.249 126.157C162.826 126.157 162.425 126.18 162.031 126.144C161.908 126.133 161.758 125.988 161.69 125.865C161.195 124.969 160.718 124.063 160.235 123.159C160.155 123.011 160.068 122.867 159.99 122.717C159.867 122.482 159.668 122.4 159.388 122.426C159.383 122.497 159.373 122.57 159.372 122.644C159.369 123.467 159.352 124.289 159.375 125.11C159.381 125.319 159.499 125.533 159.598 125.727C159.672 125.873 159.799 125.992 159.933 126.16H157.853L157.853 126.162Z" fill="white"/>
<path d="M130.066 122.979C130.066 124.58 128.731 126.062 127.205 126.191C125.431 126.34 123.957 125.039 123.725 123.06C123.879 121.359 124.955 119.98 126.696 119.816C128.309 119.662 130.006 121.105 130.067 122.979H130.066ZM125.486 123.077H125.488C125.488 123.505 125.486 123.934 125.488 124.362C125.492 124.835 126.052 125.495 126.519 125.589C127.426 125.77 128.118 125.124 128.177 124.211C128.229 123.4 128.195 122.582 128.181 121.768C128.173 121.235 127.631 120.574 127.142 120.461C126.356 120.278 125.495 120.969 125.486 121.792C125.481 122.22 125.486 122.649 125.486 123.077V123.077Z" fill="white"/>
<path d="M133.639 126.166H130.966C131.041 125.887 131.141 125.651 131.341 125.474C131.548 125.289 131.603 125.062 131.601 124.795C131.591 123.573 131.585 122.349 131.596 121.127C131.599 120.809 131.512 120.551 131.288 120.331C131.229 120.273 131.165 120.206 131.139 120.131C131.125 120.091 131.188 119.977 131.216 119.977C131.945 119.984 132.675 120.001 133.405 120.018C133.437 120.018 133.469 120.04 133.535 120.063C133.376 120.185 133.235 120.285 133.105 120.398C133.054 120.444 132.997 120.519 132.997 120.58C132.994 121.374 133.001 122.169 133.008 122.962C133.008 123.002 133.022 123.041 133.039 123.13C133.2 123.018 133.355 122.944 133.463 122.827C133.779 122.488 134.08 122.136 134.379 121.783C134.542 121.59 134.679 121.374 134.849 121.188C135.122 120.888 135.162 120.577 134.961 120.228C134.923 120.162 134.903 120.087 134.864 119.99H136.84C136.847 120.008 136.853 120.025 136.86 120.043C136.732 120.116 136.609 120.204 136.473 120.261C135.805 120.54 135.439 121.13 135.032 121.671C134.966 121.76 134.978 121.93 134.996 122.055C135.019 122.213 135.079 122.366 135.135 122.518C135.434 123.327 135.742 124.133 136.037 124.943C136.119 125.167 136.234 125.353 136.418 125.51C136.618 125.681 136.796 125.879 136.969 126.101C136.084 126.224 135.212 126.189 134.358 126.152C134.545 125.944 134.719 125.743 134.904 125.552C135.015 125.437 135.03 125.337 134.966 125.18C134.683 124.485 134.421 123.782 134.15 123.082C134.137 123.051 134.123 123.02 134.106 122.98C133.626 123.082 133.448 123.511 133.17 123.82C132.849 124.179 133.032 124.627 132.994 125.035C132.948 125.533 133.353 125.784 133.642 126.166L133.639 126.166Z" fill="white"/>
<path d="M164.991 126.051C165.225 125.846 165.464 125.646 165.69 125.433C165.758 125.369 165.831 125.27 165.832 125.187C165.844 123.816 165.838 122.445 165.851 121.074C165.854 120.748 165.761 120.513 165.462 120.354C165.329 120.283 165.231 120.148 165.117 120.041C165.127 120.023 165.137 120.004 165.147 119.985C165.213 119.98 165.279 119.973 165.344 119.973C166.047 119.97 166.751 119.967 167.453 119.968C168.04 119.968 168.565 120.183 169.065 120.466C170.341 121.191 170.938 122.447 170.603 123.881C170.407 124.719 169.944 125.405 169.137 125.818C168.617 126.084 168.097 126.229 167.501 126.185C166.809 126.134 166.112 126.169 165.415 126.162C165.29 126.161 165.165 126.138 165.04 126.125C165.024 126.1 165.008 126.076 164.992 126.051H164.991ZM167.254 125.576C167.897 125.673 168.486 125.653 168.914 125.072C169.114 124.801 169.222 124.501 169.232 124.174C169.251 123.577 169.232 122.98 169.258 122.384C169.277 121.939 169.175 121.531 168.965 121.151C168.888 121.01 168.765 120.872 168.628 120.79C168.209 120.541 167.744 120.505 167.254 120.56V125.576L167.254 125.576Z" fill="white"/>
<path d="M118.062 115.304C117.812 114.889 117.716 114.494 117.844 114.045C117.932 113.736 117.971 113.413 118.029 113.096C118.125 112.567 118.355 112.142 118.846 111.863C119.412 111.541 119.82 111.077 120.013 110.431C120.248 109.647 120.77 109.108 121.505 108.749C121.958 108.527 122.391 108.266 122.829 108.013C123.18 107.81 123.441 107.515 123.604 107.147C124.06 106.114 124.534 105.088 124.944 104.036C125.505 102.599 126.012 101.141 126.545 99.693C126.64 99.436 126.74 99.1805 126.855 98.9329C126.895 98.8469 126.992 98.7282 127.06 98.7298C127.149 98.7313 127.264 98.8196 127.319 98.9024C127.585 99.2993 127.558 99.729 127.404 100.156C126.923 101.481 126.458 102.812 125.947 104.126C125.499 105.276 125.054 106.427 124.476 107.525C124.134 108.174 123.637 108.627 123.001 108.943C122.707 109.089 122.397 109.21 122.083 109.306C121.501 109.483 121.112 109.831 120.918 110.417C120.8 110.774 120.65 111.127 120.466 111.454C120.358 111.645 120.167 111.799 119.991 111.941C119.805 112.091 119.587 112.197 119.394 112.336C119.03 112.596 118.856 112.956 118.869 113.405C118.875 113.637 118.873 113.869 118.885 114.1C118.901 114.388 118.789 114.621 118.59 114.816C118.425 114.977 118.251 115.13 118.061 115.305L118.062 115.304Z" fill="white"/>
<path d="M118.085 119.95C118.235 119.923 118.384 119.874 118.534 119.873C119.272 119.87 120.011 119.854 120.746 119.894C121.183 119.919 121.623 120.01 122.047 120.122C122.703 120.294 123.043 120.753 123.12 121.426C123.192 122.064 122.894 122.51 122.4 122.846C121.907 123.182 121.341 123.275 120.754 123.27C120.454 123.268 120.154 123.27 119.828 123.27C119.828 123.568 119.828 123.847 119.828 124.126C119.828 124.498 119.841 124.871 119.828 125.243C119.821 125.457 119.891 125.622 120.041 125.767C120.161 125.883 120.272 126.008 120.42 126.165H117.995C117.98 126.146 117.965 126.126 117.949 126.108C118.073 126 118.197 125.892 118.32 125.783C118.505 125.619 118.579 125.412 118.576 125.165C118.56 123.676 118.552 122.187 118.53 120.698C118.528 120.573 118.452 120.434 118.375 120.329C118.29 120.214 118.163 120.13 118.053 120.033L118.084 119.95H118.085ZM119.835 122.663C120.134 122.663 120.408 122.676 120.679 122.661C121.424 122.619 121.914 121.842 121.638 121.142C121.521 120.846 121.345 120.562 121.02 120.503C120.637 120.433 120.237 120.444 119.835 120.419V122.663Z" fill="white"/>
<path d="M140.751 126.163H138.152C138.278 126.024 138.38 125.913 138.48 125.801C138.656 125.605 138.741 125.383 138.741 125.112C138.733 123.763 138.73 122.413 138.745 121.063C138.748 120.761 138.679 120.515 138.463 120.305C138.38 120.224 138.316 120.123 138.225 120.008C138.357 119.995 138.454 119.977 138.55 119.977C139.548 119.974 140.55 119.918 141.543 119.986C142.58 120.057 143.159 120.556 143.292 121.463C143.312 121.598 143.304 121.746 143.268 121.877C143.052 122.665 142.341 123.204 141.524 123.209C141.109 123.213 140.695 123.211 140.28 123.212C140.205 123.212 140.13 123.212 140.019 123.212C140.019 123.76 140.041 124.287 140.012 124.81C139.987 125.281 140.166 125.624 140.529 125.896C140.616 125.961 140.691 126.042 140.77 126.117C140.764 126.132 140.758 126.148 140.752 126.163H140.751ZM140.031 122.659C140.316 122.659 140.576 122.653 140.835 122.661C141.291 122.674 141.602 122.457 141.782 122.056C141.969 121.64 141.988 121.231 141.681 120.848C141.366 120.455 140.627 120.288 140.032 120.485V122.659H140.031Z" fill="white"/>
<path d="M156.803 126.042C156.373 126.256 154.8 126.257 154.377 126.052C154.389 126.028 154.397 125.999 154.414 125.98C154.87 125.437 154.733 124.849 154.531 124.266C154.502 124.18 154.365 124.079 154.273 124.073C153.866 124.051 153.458 124.058 153.05 124.063C153.002 124.063 152.926 124.11 152.909 124.154C152.79 124.468 152.668 124.783 152.574 125.105C152.482 125.425 152.567 125.73 152.757 126.034H151.484C151.477 126.012 151.472 126.003 151.474 126C152.075 125.262 152.236 124.341 152.523 123.473C152.577 123.313 152.62 123.151 152.671 122.99C152.891 122.295 153.107 121.598 153.333 120.905C153.417 120.645 153.514 120.388 153.631 120.142C153.667 120.066 153.784 119.987 153.868 119.984C154.226 119.966 154.584 119.968 154.943 119.981C154.994 119.983 155.073 120.075 155.086 120.137C155.276 121 155.458 121.865 155.639 122.73C155.785 123.431 155.924 124.133 156.073 124.833C156.145 125.176 156.308 125.478 156.54 125.741C156.623 125.836 156.705 125.931 156.802 126.041L156.803 126.042ZM153.937 121.708C153.909 121.695 153.879 121.683 153.85 121.67C153.756 121.808 153.634 121.935 153.573 122.087C153.425 122.463 153.297 122.848 153.18 123.235C153.139 123.37 153.159 123.56 153.33 123.578C153.631 123.61 153.938 123.587 154.256 123.587C154.278 122.927 154.134 122.313 153.937 121.708Z" fill="white"/>
</g>
<defs>
<filter id="filter0_d_163_3529" x="0.268066" y="0" width="293.464" height="185.837" filterUnits="userSpaceOnUse" color-interpolation-filters="sRGB">
<feFlood flood-opacity="0" result="BackgroundImageFix"/>
<feColorMatrix in="SourceAlpha" type="matrix" values="0 0 0 0 0 0 0 0 0 0 0 0 0 0 0 0 0 0 127 0" result="hardAlpha"/>
<feOffset/>
<feGaussianBlur stdDeviation="18"/>
<feComposite in2="hardAlpha" operator="out"/>
<feColorMatrix type="matrix" values="0 0 0 0 1 0 0 0 0 1 0 0 0 0 1 0 0 0 0.24 0"/>
<feBlend mode="normal" in2="BackgroundImageFix" result="effect1_dropShadow_163_3529"/>
<feBlend mode="normal" in="SourceGraphic" in2="effect1_dropShadow_163_3529" result="shape"/>
</filter>
</defs>
</svg>
