<?xml version="1.0" encoding="UTF-8"?>
<svg id="Layer_1" data-name="Layer 1" xmlns="http://www.w3.org/2000/svg" viewBox="0 0 1032.12 320.22">
  <defs>
    <style>
      .cls-1 {
        fill: #f04e23;
      }

      .cls-1, .cls-2, .cls-3 {
        stroke-width: 0px;
      }

      .cls-2 {
        fill: #ffffff;
      }

      .cls-3 {
        fill: #f57f20;
      }
    </style>
  </defs>
  <path class="cls-1" d="m47.73,32.17L0,211.45h77.83L134.11,0h-42.37c-21.62,0-38.79,12.55-44.02,32.17Z"/>
  <polygon class="cls-1" points="155.94 0 127.8 105.73 177.48 211.45 233.77 0 155.94 0"/>
  <path class="cls-3" d="m256.18,0l-56.29,211.45h42.37c21.62,0,38.79-12.55,44.02-32.17l36.13-135.72c5.41-20.33-14.01-43.57-36.41-43.57h-29.81Z"/>
  <g>
    <path class="cls-2" d="m356.58,211.45L401.42,0h61.84l21.83,143.31h1.03L566.7,0h66.96l-44.98,211.44h-47.92l30.19-140.52h-1.61l-80.44,140.23h-32.53l-21.1-140.23h-1.17l-29.75,140.52h-47.77Z"/>
    <path class="cls-2" d="m749.14,0c50.7,0,85.43,30.33,85.43,82.06,0,75.61-44.98,129.39-112.1,129.39h-99.93L667.52,0h81.62Zm-63.15,168.36h29.16c37.51,0,64.18-30.77,64.18-79.57,0-28.28-15.24-45.72-42.49-45.72h-24.32l-26.52,125.28Z"/>
    <path class="cls-2" d="m965.13,165h-69.02l-23.88,46.45h-56.85L933.19,0h65.79l24.32,211.44h-54.66l-3.52-46.45Zm-49.53-38.68h47.33l-5.86-79.13h-1.17l-40.3,79.13Z"/>
  </g>
  <g>
    <path class="cls-2" d="m537.52,241h33.76c17.68,0,26.83,11.09,23.37,28.05l-.02.11c-3.46,16.96-17.1,27.83-34.78,27.83h-13.62l-4.74,23.22h-20.15l16.18-79.22Zm17,15.43l-5.19,25.42h8.78c8.51,0,14.47-4.45,16.15-12.68l.02-.11c1.68-8.23-2.47-12.63-10.98-12.63h-8.78Z"/>
    <path class="cls-2" d="m623.49,241h24.65l10.5,79.22h-21.14l-1.39-17.4h-25.86l-8.5,17.4h-21.14l42.86-79.22Zm-6.1,47.32h17.51l-2.42-30.08h-.38l-14.71,30.08Z"/>
    <path class="cls-2" d="m682.39,241h34.31c19.16,0,28.04,9.5,24.61,26.3l-.02.11c-2.07,10.16-9.14,18.94-18.1,22.51l9.68,30.3h-22.62l-8.04-27.28h-10.27l-5.57,27.28h-20.15l16.18-79.22Zm24.44,37.33c7.14,0,12.57-4.28,13.94-10.98l.02-.11c1.36-6.64-2.47-11.03-9.55-11.03h-11.8l-4.52,22.12h11.91Z"/>
    <path class="cls-2" d="m771.86,257.2h-21.85l3.31-16.2h63.79l-3.31,16.2h-21.85l-12.87,63.02h-20.09l12.87-63.02Z"/>
    <path class="cls-2" d="m825.62,241h17.07l22.34,45.73h.38l9.34-45.73h20.09l-16.18,79.22h-16.91l-22.4-46.22h-.38l-9.44,46.22h-20.09l16.18-79.22Z"/>
    <path class="cls-2" d="m906.82,241h54.3l-3.31,16.2h-34.15l-3.2,15.64h32.12l-3.1,15.15h-32.12l-3.27,16.03h34.15l-3.31,16.2h-54.3l16.18-79.22Z"/>
    <path class="cls-2" d="m972.48,241h34.31c19.16,0,28.04,9.5,24.61,26.3l-.02.11c-2.07,10.16-9.14,18.94-18.1,22.51l9.68,30.3h-22.62l-8.04-27.28h-10.27l-5.57,27.28h-20.15l16.18-79.22Zm24.44,37.33c7.14,0,12.57-4.28,13.94-10.98l.02-.11c1.36-6.64-2.47-11.03-9.55-11.03h-11.8l-4.52,22.12h11.91Z"/>
  </g>
</svg>