<svg width="294" height="186" viewBox="0 0 294 186" fill="none" xmlns="http://www.w3.org/2000/svg">
<g filter="url(#filter0_d_385_1184)">
<rect x="37" y="37" width="219.464" height="111.837" rx="15" stroke="#D2D2D2" stroke-width="2" shape-rendering="crispEdges"/>
<g clip-path="url(#clip0_385_1184)">
<path d="M102.354 115.943C98.5641 115.509 94.6316 113.821 92.2441 111.605C91.6704 111.072 91.6153 110.976 91.5254 110.355C91.4062 109.531 91.5357 104.452 91.6783 104.364C91.7347 104.329 92.161 104.674 92.6256 105.13C94.6377 107.105 97.8563 108.758 101.043 109.453C102.35 109.738 105.168 109.806 106.448 109.582C110.585 108.862 113.732 105.747 114.123 101.98C114.164 101.592 114.162 101.275 114.119 101.275C114.076 101.275 113.737 101.48 113.367 101.731C111.866 102.748 109.913 103.559 107.775 104.056C106.495 104.353 103.399 104.353 102.119 104.056C97.862 103.068 94.8 101.031 92.5321 97.6785C90.6994 94.9692 89.7539 91.3522 90.0568 88.2087C90.7451 81.0634 96.0421 75.5826 103.178 74.6241C106.372 74.1978 110.263 75.1022 113.063 76.9221C113.596 77.269 114.063 77.5231 114.099 77.4866C114.136 77.4502 114.166 76.9718 114.166 76.4235V75.4266H119.707L119.736 80.703L119.766 85.9794L120.195 84.7534C120.985 82.4986 122.128 80.6145 123.632 79.0885C125.715 76.9784 128.012 75.6644 130.843 74.9636C136.332 73.6064 142.222 75.5432 145.823 79.8921C147.167 81.5134 148.112 83.268 148.738 85.3018C148.945 85.9747 148.947 85.9256 148.976 77.4863L149.005 68.994H154.546V75.427H166.65V80.9548L154.602 81.0132L154.602 85.8655C154.603 91.2676 154.615 91.3755 155.402 92.9777C156.407 95.0243 158.311 96.5262 160.71 97.1648C161.86 97.4712 165.889 97.4722 167.046 97.1664C169.4 96.5443 171.305 95.0259 172.308 92.9743C172.879 91.8066 173.058 90.962 173.147 89.0284C173.187 88.1614 173.298 87.0707 173.394 86.6048C174.073 83.3292 175.824 80.2848 178.206 78.2395C181.201 75.6686 184.74 74.4142 188.596 74.5577C200.249 74.9888 206.885 87.8375 200.526 97.626C199.737 98.8401 197.602 100.99 196.417 101.761C193.665 103.554 190.668 104.399 187.521 104.272C184.727 104.16 182.306 103.413 180.054 101.971C178.877 101.217 177.506 100.027 176.712 99.0683C176.325 98.6011 175.973 98.2188 175.931 98.2188C175.889 98.2188 175.494 98.6433 175.053 99.1622C172.466 102.209 168.419 104.07 163.927 104.279C157.383 104.583 151.086 99.797 149.47 93.2866C149.311 92.6476 149.149 92.1247 149.108 92.1247C149.067 92.1247 148.948 92.5182 148.843 92.9993C148.241 95.7606 146.328 98.8368 144.017 100.756C141.959 102.467 139.796 103.491 136.946 104.107C135.868 104.34 132.624 104.304 131.516 104.047C127.291 103.067 124.113 100.936 121.903 97.6025C121.12 96.4202 120.727 95.6156 120.19 94.0997L119.751 92.8583L119.681 97.9366C119.609 103.137 119.591 103.356 119.078 105.281C118.05 109.139 114.836 112.906 111.06 114.679C110.08 115.139 108.541 115.621 107.424 115.818C106.475 115.986 103.406 116.055 102.34 115.933L102.354 115.943ZM108.034 97.3181C109.832 96.9004 111.538 95.8834 112.549 94.624C112.827 94.2783 113.292 93.5136 113.582 92.924L114.108 91.8533V86.8854L113.627 85.88C112.515 83.5605 110.784 82.1627 108.225 81.5202C107.329 81.295 106.922 81.2643 104.831 81.2631C102.753 81.262 102.342 81.2922 101.55 81.5046C98.4157 82.3457 96.3184 84.5478 95.6706 87.6799C94.8238 91.7705 97.1698 95.8382 101.101 97.0938C101.68 97.279 102.477 97.4794 102.87 97.5396C103.951 97.7044 106.917 97.5772 108.032 97.3182L108.034 97.3181ZM137.649 97.2668C140.481 96.5537 142.528 94.6693 143.441 91.9384C143.699 91.1666 143.735 90.8699 143.74 89.4805C143.745 88.2543 143.699 87.7361 143.533 87.1673C142.677 84.2193 140.657 82.2692 137.696 81.5316C135.691 81.0325 132.221 81.1071 130.382 81.6889C127.841 82.4926 125.95 84.4921 125.231 87.1342C125.048 87.8075 124.992 88.3427 124.991 89.4232C124.99 91.0724 125.247 92.1147 125.98 93.4313C126.527 94.4123 127.878 95.7813 128.866 96.3551C129.761 96.875 131.294 97.3985 132.335 97.54C133.613 97.714 136.452 97.5676 137.648 97.2662L137.649 97.2668ZM191.355 97.2768C194.256 96.5418 196.321 94.5713 197.221 91.6817C197.439 90.9828 197.484 90.5895 197.482 89.4244C197.478 87.7803 197.305 86.9995 196.641 85.6436C195.63 83.5793 193.821 82.1573 191.379 81.5086C190.59 81.2993 190.16 81.2681 188.042 81.2665C185.907 81.2649 185.499 81.2943 184.705 81.5067C183.171 81.9169 182.008 82.5636 181.032 83.5482C180.032 84.5574 179.549 85.3294 179.068 86.6866C178.739 87.615 178.718 87.775 178.715 89.3121C178.711 91.1682 178.831 91.7154 179.558 93.1411C180.524 95.0354 182.184 96.4319 184.261 97.0959C185.736 97.5674 186.493 97.6583 188.494 97.6047C189.876 97.5677 190.482 97.4982 191.355 97.2771L191.355 97.2768Z" fill="#1FCA3E"/>
</g>
</g>
<defs>
<filter id="filter0_d_385_1184" x="0" y="0" width="293.464" height="185.837" filterUnits="userSpaceOnUse" color-interpolation-filters="sRGB">
<feFlood flood-opacity="0" result="BackgroundImageFix"/>
<feColorMatrix in="SourceAlpha" type="matrix" values="0 0 0 0 0 0 0 0 0 0 0 0 0 0 0 0 0 0 127 0" result="hardAlpha"/>
<feOffset/>
<feGaussianBlur stdDeviation="18"/>
<feComposite in2="hardAlpha" operator="out"/>
<feColorMatrix type="matrix" values="0 0 0 0 1 0 0 0 0 1 0 0 0 0 1 0 0 0 0.24 0"/>
<feBlend mode="normal" in2="BackgroundImageFix" result="effect1_dropShadow_385_1184"/>
<feBlend mode="normal" in="SourceGraphic" in2="effect1_dropShadow_385_1184" result="shape"/>
</filter>
<clipPath id="clip0_385_1184">
<rect width="113" height="47" fill="white" transform="translate(90 69)"/>
</clipPath>
</defs>
</svg>
